<?xml version="1.0" standalone="no"?>
<!DOCTYPE svg PUBLIC "-//W3C//DTD SVG 20010904//EN"
 "http://www.w3.org/TR/2001/REC-SVG-20010904/DTD/svg10.dtd">
<svg version="1.0" xmlns="http://www.w3.org/2000/svg"
 width="454.000000pt" height="111.000000pt" viewBox="0 0 454.000000 111.000000"
 preserveAspectRatio="xMidYMid meet">
<metadata>
Created by potrace 1.16, written by Peter Selinger 2001-2019
</metadata>
<g transform="translate(0.000000,111.000000) scale(0.100000,-0.100000)"
fill="#000000" stroke="none">
<path d="M3404 949 l-38 -39 154 -155 155 -156 -158 -152 -159 -152 44 -42 43
-41 199 195 199 195 -134 135 c-74 74 -164 161 -200 193 l-66 59 -39 -40z"/>
<path d="M152 937 l-32 -33 0 -155 0 -155 33 -32 33 -32 115 0 115 0 37 38
c24 25 37 47 37 65 0 25 -3 27 -44 27 -26 0 -48 -6 -56 -15 -9 -11 -33 -15
-86 -15 l-74 0 0 125 0 125 68 0 c56 0 72 -4 87 -20 13 -14 31 -20 62 -20 42
0 43 1 43 33 0 24 -9 42 -33 65 l-33 32 -120 0 -120 0 -32 -33z"/>
<path d="M580 782 l0 -188 33 -32 33 -32 125 0 125 0 32 33 32 33 0 187 0 187
-55 0 -55 0 0 -170 0 -170 -80 0 -80 0 0 170 0 170 -55 0 -55 0 0 -188z"/>
<path d="M1052 753 l3 -218 53 -3 52 -3 0 75 0 76 48 0 47 -1 45 -75 45 -75
50 3 c43 3 50 6 53 25 2 13 -12 44 -32 75 l-36 52 35 36 c33 34 35 39 35 108
0 66 -2 74 -31 107 l-31 35 -169 0 -169 0 2 -217z m278 77 l0 -50 -85 0 -85 0
0 43 c0 24 3 47 7 50 3 4 42 7 85 7 l78 0 0 -50z"/>
<path d="M1520 929 c0 -32 4 -42 20 -46 19 -5 20 -14 20 -134 0 -124 -1 -129
-21 -129 -18 0 -20 -5 -17 -42 l3 -43 86 -3 87 -3 4 46 c3 38 0 45 -14 45 -16
0 -18 13 -18 130 0 105 3 130 14 130 9 0 15 15 18 45 l3 45 -92 0 -93 0 0 -41z"/>
<path d="M1812 937 l-32 -33 0 -150 0 -150 38 -37 38 -37 120 0 120 0 37 38
37 38 0 150 0 150 -33 32 -33 32 -130 0 -130 0 -32 -33z m238 -182 l0 -125
-80 0 -80 0 0 118 c0 65 3 122 7 125 3 4 39 7 80 7 l73 0 0 -125z"/>
<path d="M2260 782 l0 -188 33 -32 33 -32 122 0 121 0 36 31 35 31 0 189 0
189 -55 0 -55 0 0 -170 0 -170 -80 0 -80 0 0 170 0 170 -55 0 -55 0 0 -188z"/>
<path d="M2762 937 c-29 -30 -32 -38 -32 -98 0 -60 2 -67 33 -97 33 -32 33
-32 140 -32 l107 0 0 -40 0 -40 -84 0 c-62 0 -87 4 -96 15 -8 9 -30 15 -56 15
-43 0 -44 -1 -44 -34 0 -26 8 -41 35 -65 l36 -31 127 0 128 0 32 33 c30 31 32
38 32 103 0 66 -2 72 -33 102 -33 32 -33 32 -141 32 l-107 0 3 38 3 37 81 3
c70 2 83 0 99 -18 12 -13 31 -20 57 -20 36 0 38 1 38 33 0 24 -9 42 -33 65
l-33 32 -130 0 -130 0 -32 -33z"/>
<path d="M120 270 l0 -140 108 0 c142 0 142 0 142 142 0 138 0 138 -143 138
l-107 0 0 -140z m180 0 l0 -80 -55 0 -55 0 0 80 0 80 55 0 55 0 0 -80z"/>
<path d="M430 287 c0 -159 -1 -157 138 -157 l102 0 0 30 0 30 -85 0 c-84 0
-85 0 -85 25 0 24 2 25 75 25 l75 0 0 30 0 30 -75 0 c-73 0 -75 1 -75 25 0 25
1 25 85 25 l85 0 0 30 0 30 -120 0 -120 0 0 -123z"/>
<path d="M720 398 c0 -7 21 -70 47 -140 l48 -128 40 0 41 0 47 125 c26 69 47
132 47 140 0 10 -10 15 -34 15 -34 0 -35 -1 -67 -90 -17 -49 -33 -90 -35 -90
-1 0 -8 17 -15 38 -42 132 -48 142 -85 142 -20 0 -34 -5 -34 -12z"/>
<path d="M1040 287 c0 -159 -1 -157 138 -157 l102 0 0 30 0 30 -85 0 c-84 0
-85 0 -85 25 0 24 2 25 75 25 l75 0 0 30 0 30 -75 0 c-73 0 -75 1 -75 25 0 25
1 25 85 25 l85 0 0 30 0 30 -120 0 -120 0 0 -123z"/>
<path d="M1340 287 c0 -158 -1 -157 133 -157 l97 0 0 30 0 30 -80 0 -80 0 0
110 0 110 -35 0 -35 0 0 -123z"/>
<path d="M1637 392 c-14 -15 -17 -40 -17 -124 0 -134 3 -138 122 -138 75 0 87
2 106 23 19 21 22 35 22 118 0 87 -2 97 -23 117 -20 19 -35 22 -109 22 -70 0
-88 -3 -101 -18z m163 -122 l0 -80 -55 0 -55 0 0 80 0 80 55 0 55 0 0 -80z"/>
<path d="M1930 270 l0 -140 35 0 c34 0 35 1 35 40 l0 40 73 0 c95 0 107 11
107 102 0 92 -8 98 -143 98 l-107 0 0 -140z"/>
<path d="M2240 292 c0 -111 1 -120 23 -140 21 -20 34 -22 125 -22 l102 0 0 30
0 30 -91 0 c-88 0 -90 1 -87 22 3 21 9 23 76 26 l72 3 0 29 0 29 -72 3 c-67 3
-73 5 -76 26 -3 21 -1 22 87 22 l91 0 0 30 0 30 -125 0 -125 0 0 -118z"/>
<path d="M2550 270 l0 -140 35 0 35 0 0 51 c0 49 1 50 28 47 20 -2 35 -15 57
-50 26 -41 35 -48 63 -48 26 0 32 4 32 21 0 11 -9 33 -20 49 -19 27 -19 27 0
45 16 14 20 31 20 75 0 83 -11 90 -143 90 l-107 0 0 -140z"/>
<path d="M2885 390 c-14 -16 -18 -33 -16 -68 4 -70 20 -82 108 -82 71 0 73 -1
73 -25 0 -24 -3 -25 -54 -25 -30 0 -58 5 -61 10 -3 6 -21 10 -39 10 -26 0 -32
-4 -31 -20 1 -10 10 -28 20 -40 16 -17 30 -20 110 -20 111 0 125 10 125 87 0
70 -17 83 -108 83 -70 0 -72 1 -72 25 0 24 3 25 54 25 30 0 58 -4 61 -10 3 -5
19 -10 36 -10 24 0 29 4 29 23 0 45 -28 57 -127 57 -78 0 -92 -3 -108 -20z"/>
<path d="M3880 185 l0 -65 270 0 270 0 0 65 0 65 -270 0 -270 0 0 -65z"/>
</g>
</svg>
